<?xml version="1.0" encoding="utf-8"?>
<!-- Generator: Adobe Illustrator 16.0.0, SVG Export Plug-In . SVG Version: 6.00 Build 0)  -->
<!DOCTYPE svg PUBLIC "-//W3C//DTD SVG 1.1//EN" "http://www.w3.org/Graphics/SVG/1.1/DTD/svg11.dtd">
<svg version="1.1" id="Layer_1" xmlns="http://www.w3.org/2000/svg" xmlns:xlink="http://www.w3.org/1999/xlink" x="0px" y="0px"
	 width="598px" height="153.5px" viewBox="0 0 598 153.5" enable-background="new 0 0 598 153.5" xml:space="preserve">
<g>
	<defs>
		<rect id="SVGID_1_" x="2" y="1.681" width="623.779" height="151.819"/>
	</defs>
	<clipPath id="SVGID_2_">
		<use xlink:href="#SVGID_1_"  overflow="visible"/>
	</clipPath>
	<path clip-path="url(#SVGID_2_)" fill="#80999E" d="M241.539,13.117c-1.541,0-4.416-0.25-4.416-0.25s-7.917-11.083-23.125-10.125
		c0,0-24.792,1.542-32.375,29.125c-1.5,1.25-37.625,21.375-37.625,21.375l-21.5,13.625c0,0-35.125,19.25-35.875,18.875
		c-0.75,0.875-2,2.375,11,3c-1.125,0.625-10.75,6.25-12.75,7.375s-37.125,14.375-37.125,14.375L4.696,128.73l7.37,3.543
		c14.592-5.83,68.182-26.531,68.182-26.531l25.125-5l21.875,0.375c0,0-0.25,1,2.875,0.875c-0.75,2.125-6.25,17.625-10.25,22.125
		c-2.25-0.125-11.75-2-11.75-2.5s-3.75-2.5-4.625-2.375c-0.75-0.5-6.875-1.5-8.5,4.625c0.875-0.5,2.375-4.125,7.75-3
		c0,1.125-0.125,2.75,2.125,3c1.25,0.25,6.5,0.25,6.5,0.875s6.625,1.25,6.625,1.25s0.875,6.375,0.625,7s-2.375,7.5-1.25,11.5
		c0.375,0.625,2.25,1.25,2.25,1.25s1.875,3.875-2.5,4.5c1,0.75,3.25,0.5,4.5-3.25c0.875,0.625,3.125,2.75,3.875,2.625
		c-0.25,0.625,0.75,2,4,0.5c0.375-0.375,0.75-2.125,2.625-1.75c1.125,0.375,3.375,1.25,5,2.625c0.25-0.5-1.875-5.5-8.625-4
		c-0.875,0.5-2.25,1.375-2.375,0.75s-5.375-6.25-3.5-17.875c0.75-1.625,2.625-8.25,2.625-8.25l7.375-17.875l6.875,0.375
		c0,0,11.875,3.875,23.25,1.75c0,1.25-0.625,7.5-0.25,8.25s2.5,2.125,2.5,2.125c0.625,1,24.625,29.25,24.625,29.25
		s-1,1.125-0.125,2.25s-8.125-0.125-8.125-0.125s-7.25-2.75-8-2.875s-3.5,1-3.5,1s-3.75,2.625-4.125,3.75c1.5-0.5,4-3.625,9-2.25
		c0.125,0.625-0.25,2,0.625,2.125s7.812,0.813,8.562,0.438c0.375,0.375,1.875,1.25,5.438,0.188c0.562,0,2.437-0.438,2.437-1
		c0.5,0.438,2.396,2.458,8.729,2.792c1.5,0.5,5.834,0.834,7.5,0.667c1.168,0.167,4.834,1,6.334-1c-0.25-0.583,3-0.417,4.666,1.333
		c0.417-0.416,0.25-1.166-0.25-2.416c0.084-0.667,1.084-1.167,0.75-1.667c0.75,0,4.334-0.501,6.834,2.583
		c0.166-0.583-2-4.917-11.334-4.5c-0.75,0.334-1.332,0.334-1.916,0.917c-0.5,0.417-1.916,0.166-2-0.167
		c-0.084-0.333-2.75-3.25-5.417-2.75c-2.667,0.5-2.167,1.167-2.167,1.167s-5.666,1.499-7.083,0.083
		c-1.417-1.416-2.249-1.333-2.333-1.833c-0.917-1-25.25-28.583-25.25-28.583s-1.5-8.167,0.333-9.75
		c1.333-0.083,23.667-3.501,33.25-12.917c1.333-1.083,17.417-16.25,17.75-27.083c4.958-15.436,2.167-29.916,2.167-29.916
		c0.916-0.834,6.584-10.167,15.834-15.167c1.166-0.333,18.166-5.086,18.166-5.668C256.373,15.117,252.706,12.45,241.539,13.117"/>
	<path clip-path="url(#SVGID_2_)" fill="none" stroke="#80999E" stroke-miterlimit="10" d="M241.539,13.117
		c-1.541,0-4.416-0.25-4.416-0.25s-7.917-11.083-23.125-10.125c0,0-24.792,1.542-32.375,29.125
		c-1.5,1.25-37.625,21.375-37.625,21.375l-21.5,13.625c0,0-35.125,19.25-35.875,18.875c-0.75,0.875-2,2.375,11,3
		c-1.125,0.625-10.75,6.25-12.75,7.375s-37.125,14.375-37.125,14.375L4.696,128.73l7.37,3.543
		c14.592-5.83,68.182-26.531,68.182-26.531l25.125-5l21.875,0.375c0,0-0.25,1,2.875,0.875c-0.75,2.125-6.25,17.625-10.25,22.125
		c-2.25-0.125-11.75-2-11.75-2.5s-3.75-2.5-4.625-2.375c-0.75-0.5-6.875-1.5-8.5,4.625c0.875-0.5,2.375-4.125,7.75-3
		c0,1.125-0.125,2.75,2.125,3c1.25,0.25,6.5,0.25,6.5,0.875s6.625,1.25,6.625,1.25s0.875,6.375,0.625,7s-2.375,7.5-1.25,11.5
		c0.375,0.625,2.25,1.25,2.25,1.25s1.875,3.875-2.5,4.5c1,0.75,3.25,0.5,4.5-3.25c0.875,0.625,3.125,2.75,3.875,2.625
		c-0.25,0.625,0.75,2,4,0.5c0.375-0.375,0.75-2.125,2.625-1.75c1.125,0.375,3.375,1.25,5,2.625c0.25-0.5-1.875-5.5-8.625-4
		c-0.875,0.5-2.25,1.375-2.375,0.75s-5.375-6.25-3.5-17.875c0.75-1.625,2.625-8.25,2.625-8.25l7.375-17.875l6.875,0.375
		c0,0,11.875,3.875,23.25,1.75c0,1.25-0.625,7.5-0.25,8.25s2.5,2.125,2.5,2.125c0.625,1,24.625,29.25,24.625,29.25
		s-1,1.125-0.125,2.25s-8.125-0.125-8.125-0.125s-7.25-2.75-8-2.875s-3.5,1-3.5,1s-3.75,2.625-4.125,3.75c1.5-0.5,4-3.625,9-2.25
		c0.125,0.625-0.25,2,0.625,2.125s7.812,0.813,8.562,0.438c0.375,0.375,1.875,1.25,5.438,0.188c0.562,0,2.437-0.438,2.437-1
		c0.5,0.438,2.396,2.458,8.729,2.792c1.5,0.5,5.834,0.834,7.5,0.667c1.168,0.167,4.834,1,6.334-1c-0.25-0.583,3-0.417,4.666,1.333
		c0.417-0.416,0.25-1.166-0.25-2.416c0.084-0.667,1.084-1.167,0.75-1.667c0.75,0,4.334-0.501,6.834,2.583
		c0.166-0.583-2-4.917-11.334-4.5c-0.75,0.334-1.332,0.334-1.916,0.917c-0.5,0.417-1.916,0.166-2-0.167
		c-0.084-0.333-2.75-3.25-5.417-2.75c-2.667,0.5-2.167,1.167-2.167,1.167s-5.666,1.499-7.083,0.083
		c-1.417-1.416-2.249-1.333-2.333-1.833c-0.917-1-25.25-28.583-25.25-28.583s-1.5-8.167,0.333-9.75
		c1.333-0.083,23.667-3.501,33.25-12.917c1.333-1.083,17.417-16.25,17.75-27.083c4.958-15.436,2.167-29.916,2.167-29.916
		c0.916-0.834,6.584-10.167,15.834-15.167c1.166-0.333,18.166-5.086,18.166-5.668C256.373,15.117,252.706,12.45,241.539,13.117z"/>
	<path clip-path="url(#SVGID_2_)" fill="#01333D" d="M162.387,113.354c4.13,1.353,6.647,2.447,6.647,2.447s24.171,27.4,25.088,28.4
		c0.084,0.5,0.916,0.417,2.333,1.833s7.083-0.083,7.083-0.083s-0.5-0.667,2.167-1.167s5.333,2.417,5.417,2.75s1.5,0.584,2,0.167
		c0.584-0.583,1.166-0.583,1.916-0.917c9.334-0.417,11.5,3.917,11.334,4.5c-2.5-3.084-6.084-2.583-6.834-2.583
		c0.334,0.5-0.666,1-0.75,1.667c0.5,1.25,0.667,2,0.25,2.416c-1.666-1.75-4.916-1.916-4.666-1.333c-1.5,2-5.166,1.167-6.334,1
		c-1.666,0.167-6-0.167-7.5-0.667c-6.333-0.334-8.228-2.355-8.728-2.792c0,0.562-1.875,1-2.438,1
		c-3.562,1.062-5.062,0.187-5.437-0.188c-0.75,0.375-7.688-0.312-8.563-0.437s-0.5-1.5-0.625-2.125c-5-1.375-7.5,1.75-9,2.25
		c0.375-1.125,4.125-3.75,4.125-3.75s2.75-1.125,3.5-1s8,2.875,8,2.875s9,1.25,8.125,0.125s0.125-2.25,0.125-2.25
		s-24-28.25-24.625-29.25c0,0-2.125-1.375-2.5-2.125C162.471,114.065,162.387,113.523,162.387,113.354"/>
	<path clip-path="url(#SVGID_2_)" fill="none" stroke="#01333D" stroke-miterlimit="10" d="M162.387,113.354
		c4.13,1.353,6.647,2.447,6.647,2.447s24.171,27.4,25.088,28.4c0.084,0.5,0.916,0.417,2.333,1.833s7.083-0.083,7.083-0.083
		s-0.5-0.667,2.167-1.167s5.333,2.417,5.417,2.75s1.5,0.584,2,0.167c0.584-0.583,1.166-0.583,1.916-0.917
		c9.334-0.417,11.5,3.917,11.334,4.5c-2.5-3.084-6.084-2.583-6.834-2.583c0.334,0.5-0.666,1-0.75,1.667c0.5,1.25,0.667,2,0.25,2.416
		c-1.666-1.75-4.916-1.916-4.666-1.333c-1.5,2-5.166,1.167-6.334,1c-1.666,0.167-6-0.167-7.5-0.667
		c-6.333-0.334-8.228-2.355-8.728-2.792c0,0.562-1.875,1-2.438,1c-3.562,1.062-5.062,0.187-5.437-0.188
		c-0.75,0.375-7.688-0.312-8.563-0.437s-0.5-1.5-0.625-2.125c-5-1.375-7.5,1.75-9,2.25c0.375-1.125,4.125-3.75,4.125-3.75
		s2.75-1.125,3.5-1s8,2.875,8,2.875s9,1.25,8.125,0.125s0.125-2.25,0.125-2.25s-24-28.25-24.625-29.25c0,0-2.125-1.375-2.5-2.125
		C162.471,114.065,162.387,113.523,162.387,113.354z"/>
	<path clip-path="url(#SVGID_2_)" fill="#01333D" d="M103.498,119.242c0.875-0.125,4.625,1.875,4.625,2.375s9.5,2.375,11.75,2.5
		c2.572-2.894,5.763-10.333,7.914-15.842c0.098,1.495,0.523,2.83,1.467,3.633l-4.006,9.709c0,0-1.875,6.625-2.625,8.25
		c-1.875,11.625,3.375,17.25,3.5,17.875s1.5-0.25,2.375-0.75c6.75-1.5,8.875,3.5,8.625,4c-1.625-1.375-3.875-2.25-5-2.625
		c-1.875-0.375-2.25,1.375-2.625,1.75c-3.25,1.5-4.25,0.125-4-0.5c-0.75,0.125-3-2-3.875-2.625c-1.25,3.75-3.5,4-4.5,3.25
		c4.375-0.625,2.5-4.5,2.5-4.5s-1.875-0.625-2.25-1.25c-1.125-4,1-10.875,1.25-11.5s-0.625-7-0.625-7s-6.625-0.625-6.625-1.25
		s-5.25-0.625-6.5-0.875c-2.25-0.25-2.125-1.875-2.125-3c-5.375-1.125-6.875,2.5-7.75,3
		C96.623,117.742,102.748,118.742,103.498,119.242"/>
	<path clip-path="url(#SVGID_2_)" fill="none" stroke="#01333D" stroke-miterlimit="10" d="M103.498,119.242
		c0.875-0.125,4.625,1.875,4.625,2.375s9.5,2.375,11.75,2.5c2.572-2.894,5.763-10.333,7.914-15.842
		c0.098,1.495,0.523,2.83,1.467,3.633l-4.006,9.709c0,0-1.875,6.625-2.625,8.25c-1.875,11.625,3.375,17.25,3.5,17.875
		s1.5-0.25,2.375-0.75c6.75-1.5,8.875,3.5,8.625,4c-1.625-1.375-3.875-2.25-5-2.625c-1.875-0.375-2.25,1.375-2.625,1.75
		c-3.25,1.5-4.25,0.125-4-0.5c-0.75,0.125-3-2-3.875-2.625c-1.25,3.75-3.5,4-4.5,3.25c4.375-0.625,2.5-4.5,2.5-4.5
		s-1.875-0.625-2.25-1.25c-1.125-4,1-10.875,1.25-11.5s-0.625-7-0.625-7s-6.625-0.625-6.625-1.25s-5.25-0.625-6.5-0.875
		c-2.25-0.25-2.125-1.875-2.125-3c-5.375-1.125-6.875,2.5-7.75,3C96.623,117.742,102.748,118.742,103.498,119.242z"/>
	<path clip-path="url(#SVGID_2_)" fill="#01333D" d="M239.196,20.505c0,0-1.823-1.888-3.823-2.054c-2-0.167-3.5,4.166-13.5,8.666
		c-1.834,0.667-5.667,2.584-16.75,1.417c1.333,1.583,6.666,5.333,5.833,10.417c-1.25,0.333-0.5,1.333-9.833,0.916
		c1.25,1.084,14.376,14.92,19.479,24.71c0.447-1.601,4.104-13.124,1.771-28.625C223.248,35.117,233.935,21.806,239.196,20.505"/>
	<path clip-path="url(#SVGID_2_)" fill="none" stroke="#01333D" stroke-miterlimit="10" d="M239.196,20.505
		c0,0-1.823-1.888-3.823-2.054c-2-0.167-3.5,4.166-13.5,8.666c-1.834,0.667-5.667,2.584-16.75,1.417
		c1.333,1.583,6.666,5.333,5.833,10.417c-1.25,0.333-0.5,1.333-9.833,0.916c1.25,1.084,14.376,14.92,19.479,24.71
		c0.447-1.601,4.104-13.124,1.771-28.625C223.248,35.117,233.935,21.806,239.196,20.505z"/>
	<path clip-path="url(#SVGID_2_)" fill="#01333D" d="M227.523,4.961c-8.745-6.84-37.563-2.15-45.989,26.406
		c0,0,4.833,0.214,7.666,1.334c0.167-1.297,1.339-15.342,13.923-14.255c-0.25-1.495-2.75-4.496-1.417-7.329
		c0.723-1.25,2.416-5.166,16.583-2.166c0.548-0.551,1.156-1.835,3.834-3.25C224.054,4.681,227.523,4.961,227.523,4.961"/>
	<path clip-path="url(#SVGID_2_)" fill="none" stroke="#01333D" stroke-miterlimit="10" d="M227.523,4.961
		c-8.745-6.84-37.563-2.15-45.989,26.406c0,0,4.833,0.214,7.666,1.334c0.167-1.297,1.339-15.342,13.923-14.255
		c-0.25-1.495-2.75-4.496-1.417-7.329c0.723-1.25,2.416-5.166,16.583-2.166c0.548-0.551,1.156-1.835,3.834-3.25
		C224.054,4.681,227.523,4.961,227.523,4.961z"/>
	<path clip-path="url(#SVGID_2_)" fill="#01333D" d="M256.373,15.117c0,0-3.083-2.75-19.25-2.25c-1.25,0.5-1.334,2.167-9.917,4.833
		c1.75,0,7.833-0.341,7.833,0.746c0.834,0.085,2.814,0.363,4.157,2.06C239.781,20.34,256.79,15.382,256.373,15.117"/>
	<path clip-path="url(#SVGID_2_)" fill="none" stroke="#01333D" stroke-miterlimit="10" d="M256.373,15.117
		c0,0-3.083-2.75-19.25-2.25c-1.25,0.5-1.334,2.167-9.917,4.833c1.75,0,7.833-0.341,7.833,0.746c0.834,0.085,2.814,0.363,4.157,2.06
		C239.781,20.34,256.79,15.382,256.373,15.117z"/>
	<path clip-path="url(#SVGID_2_)" fill="#01333D" d="M221.117,15.992c0,1.589-1.287,2.875-2.875,2.875
		c-1.588,0-2.875-1.286-2.875-2.875c0-1.588,1.287-2.875,2.875-2.875C219.83,13.117,221.117,14.404,221.117,15.992"/>
	<circle clip-path="url(#SVGID_2_)" fill="none" stroke="#01333D" stroke-miterlimit="10" cx="218.242" cy="15.992" r="2.875"/>
	<path clip-path="url(#SVGID_2_)" fill="#01333D" d="M151.669,74.691c-0.947-0.801-1.729-1.626-2.378-2.459
		c-5.035,1.845-26.001,8.25-53.551,9.021c-4.394,2.139-7.59,3.727-8.691,4.275C126.333,84.815,146.392,77.08,151.669,74.691"/>
	<path clip-path="url(#SVGID_2_)" fill="none" stroke="#01333D" stroke-miterlimit="10" d="M151.669,74.691
		c-0.947-0.801-1.729-1.626-2.378-2.459c-5.035,1.845-26.001,8.25-53.551,9.021c-4.394,2.139-7.59,3.727-8.691,4.275
		C126.333,84.815,146.392,77.08,151.669,74.691z"/>
	<path clip-path="url(#SVGID_2_)" fill="#01333D" d="M98.461,79.935c9.022-0.737,30.581-3.033,49.84-9.143
		c-0.901-1.501-1.417-2.989-1.678-4.364c-13.714,6.091-30.663,7.981-37.718,8.525C105.159,76.714,101.598,78.419,98.461,79.935"/>
	<path clip-path="url(#SVGID_2_)" fill="none" stroke="#01333D" stroke-miterlimit="10" d="M98.461,79.935
		c9.022-0.737,30.581-3.033,49.84-9.143c-0.901-1.501-1.417-2.989-1.678-4.364c-13.714,6.091-30.663,7.981-37.718,8.525
		C105.159,76.714,101.598,78.419,98.461,79.935z"/>
	<path clip-path="url(#SVGID_2_)" fill="#01333D" d="M153.883,76.31c-21.672,9.235-52.472,10.641-67.564,10.659
		c0.162,0.179,0.448,0.348,0.933,0.486c20.552,4.669,81.198-4.504,83.489-5.712C162.903,80.646,157.543,78.656,153.883,76.31"/>
	<path clip-path="url(#SVGID_2_)" fill="none" stroke="#01333D" stroke-miterlimit="10" d="M153.883,76.31
		c-21.672,9.235-52.472,10.641-67.564,10.659c0.162,0.179,0.448,0.348,0.933,0.486c20.552,4.669,81.198-4.504,83.489-5.712
		C162.903,80.646,157.543,78.656,153.883,76.31z"/>
	<path clip-path="url(#SVGID_2_)" fill="#01333D" d="M146.407,64.656c-0.157-2.799,0.585-4.789,0.585-4.789
		c-3.736-0.289-18.586,6.06-32.622,12.539C129.926,70.818,142.932,66.027,146.407,64.656"/>
	<path clip-path="url(#SVGID_2_)" fill="none" stroke="#01333D" stroke-miterlimit="10" d="M146.407,64.656
		c-0.157-2.799,0.585-4.789,0.585-4.789c-3.736-0.289-18.586,6.06-32.622,12.539C129.926,70.818,142.932,66.027,146.407,64.656z"/>
	<path clip-path="url(#SVGID_2_)" fill="#01333D" d="M181.747,57.355c-7.433,4.048-17.589,8.904-29.731,13.148
		c0.834,0.982,1.9,1.976,3.242,2.958c15.305-5.67,25.966-11.291,32.896-15.587C186.399,57.624,184.284,57.443,181.747,57.355"/>
	<path clip-path="url(#SVGID_2_)" fill="none" stroke="#01333D" stroke-miterlimit="10" d="M181.747,57.355
		c-7.433,4.048-17.589,8.904-29.731,13.148c0.834,0.982,1.9,1.976,3.242,2.958c15.305-5.67,25.966-11.291,32.896-15.587
		C186.399,57.624,184.284,57.443,181.747,57.355z"/>
	<path clip-path="url(#SVGID_2_)" fill="#01333D" d="M149.386,65.317c0.254,1.253,0.786,2.627,1.76,4.047
		c6.513-2.521,16.472-6.67,26.815-12.066c-3.358,0.007-7.308,0.151-11.957,0.475C159.586,61.2,153.488,63.748,149.386,65.317"/>
	<path clip-path="url(#SVGID_2_)" fill="none" stroke="#01333D" stroke-miterlimit="10" d="M149.386,65.317
		c0.254,1.253,0.786,2.627,1.76,4.047c6.513-2.521,16.472-6.67,26.815-12.066c-3.358,0.007-7.308,0.151-11.957,0.475
		C159.586,61.2,153.488,63.748,149.386,65.317z"/>
	<path clip-path="url(#SVGID_2_)" fill="#01333D" d="M160.875,58.178c-3.283,0.289-6.854,0.652-10.758,1.106
		c0,0-0.877,1.558-0.924,3.9C153.356,61.683,157.285,59.955,160.875,58.178"/>
	<path clip-path="url(#SVGID_2_)" fill="none" stroke="#01333D" stroke-miterlimit="10" d="M160.875,58.178
		c-3.283,0.289-6.854,0.652-10.758,1.106c0,0-0.877,1.558-0.924,3.9C153.356,61.683,157.285,59.955,160.875,58.178z"/>
	<path clip-path="url(#SVGID_2_)" fill="#01333D" d="M191.241,58.467c-10.725,6.735-23.286,12.133-34.299,16.128
		c3.755,2.323,9.234,4.524,17.175,6.272c2.25-0.5,19.084-9.333,21.834-16.666C196.091,63.78,198.557,60.324,191.241,58.467"/>
	<path clip-path="url(#SVGID_2_)" fill="none" stroke="#01333D" stroke-miterlimit="10" d="M191.241,58.467
		c-10.725,6.735-23.286,12.133-34.299,16.128c3.755,2.323,9.234,4.524,17.175,6.272c2.25-0.5,19.084-9.333,21.834-16.666
		C196.091,63.78,198.557,60.324,191.241,58.467z"/>
	<path clip-path="url(#SVGID_2_)" fill="#01333D" d="M97.623,88.742c-0.874,0.5-11.996,6.945-12.75,7.375
		c0.168,0.25-36.634,14.19-36.634,14.19s-27.478,11.051-29.122,11.748c-1.274,0.54-12.269,4.597-15.875,6.125l6.029,2.75
		c16.126-5.925,70.615-28.312,72.977-29.063c18.375-5.375,37.375-14.625,37.375-14.625C100.582,87.326,98.497,88.242,97.623,88.742"
		/>
	<path clip-path="url(#SVGID_2_)" fill="none" stroke="#01333D" stroke-miterlimit="10" d="M97.623,88.742
		c-0.874,0.5-11.996,6.945-12.75,7.375c0.168,0.25-36.634,14.19-36.634,14.19s-27.478,11.051-29.122,11.748
		c-1.274,0.54-12.269,4.597-15.875,6.125l6.029,2.75c16.126-5.925,70.615-28.312,72.977-29.063
		c18.375-5.375,37.375-14.625,37.375-14.625C100.582,87.326,98.497,88.242,97.623,88.742z"/>
	<g clip-path="url(#SVGID_2_)">
		<text transform="matrix(1 0 0 1 282.9204 43.71)" fill="#B4A068" font-family="'ACaslonPro-Bold'" font-size="57.0279">Califor</text>
	</g>
	<g clip-path="url(#SVGID_2_)">
		<text transform="matrix(1 0 0 1 455.7148 43.71)" fill="#B4A068" font-family="'ACaslonPro-Bold'" font-size="57.0279">nia </text>
	</g>
</g>
<text transform="matrix(1 0 0 1 282.9204 98.0225)" fill="#B4A068" font-family="'ACaslonPro-Bold'" font-size="57.0279">Bird Record</text>
<text transform="matrix(1 0 0 1 575.1309 98.0225)" fill="#B4A068" font-family="'ACaslonPro-Bold'" font-size="57.0279">s</text>
<g>
	<defs>
		<rect id="SVGID_3_" x="2" y="1.681" width="623.779" height="151.819"/>
	</defs>
	<clipPath id="SVGID_4_">
		<use xlink:href="#SVGID_3_"  overflow="visible"/>
	</clipPath>
	<g clip-path="url(#SVGID_4_)">
		<text transform="matrix(1 0 0 1 282.9204 152.335)" fill="#B4A068" font-family="'ACaslonPro-Bold'" font-size="57.0279">Committee</text>
	</g>
</g>
</svg>
